# xmcd
#
# Track frame offsets:
#	150
#	19348
#	39395
#	59510
#	84427
#	104768
#	118955
#	142779
#	158954
#	179304
#	194365
#	206485
#	222549
#	235527
#	245574
#	254377
#	264922
#	277869
#	300341
#
# Disc length: 4278 seconds
#
# Revision: 1
# Processed by: cddbd v1.5.1PL0 Copyright (c) Steve Scherf et al.
# Submitted via: audiograbber 1.82.01
#
DISCID=0d10b413
DTITLE=Gaither - Christmas In The Country
DYEAR=1900
DGENRE=Christmas
TTITLE0=Come And See What's Happenin'
TTITLE1=Mary Was The First One To Carry The Gospel
TTITLE2=Hark The Herald Angels Sing, O Come All Ye Faithful
TTITLE3=Christmas In The Country
TTITLE4=Unpeakable Joy (Happy Goodmans)
TTITLE5=Joy To The World (Jack Toney)
TTITLE6=O Holy Night (David Phelps)
TTITLE7=He Drew The Line
TTITLE8=Tennessee Christmas
TTITLE9=Glory To God In The Highest (Old Friends Quartet)
TTITLE10=Away In A Manger
TTITLE11=Sitting By The Fire (Janet Paschal)
TTITLE12=Something To Shout About
TTITLE13=Christ Is Born
TTITLE14=Jingle Bells
TTITLE15=O Little Town Of Bethlehem (Squire Parsons)
TTITLE16=What A Wonderful World (Russ Taff)
TTITLE17=Love In Any Language
TTITLE18=Silent Night (Buddy Greene)
EXTD=
EXTT0=
EXTT1=
EXTT2=
EXTT3=
EXTT4=
EXTT5=
EXTT6=
EXTT7=
EXTT8=
EXTT9=
EXTT10=
EXTT11=
EXTT12=
EXTT13=
EXTT14=
EXTT15=
EXTT16=
EXTT17=
EXTT18=
PLAYORDER=
